#!OML:ASF H:\Terrain\Patient Classification 1\Terrain2\Thursday\justin.ASF
:FULLY-SPECIFIED
:DEGREES
2623
root 32.3973 17.9462 11.3538 1077.78 -87.9635 724.049
lowerback 6.26264 0.612311 -3.64937
upperback 1.89373 0.585331 1.84317
thorax -1.61284 0.276853 3.91299
lowerneck -14.5725 -3.39401 -9.44455
upperneck 25.5879 -4.12852 4.96342
head 10.9732 -2.35996 2.80269
rclavicle 5.91384e-015 1.47101e-014
rhumerus -30.122 -7.96295 -80.2455
rradius 29.115
rwrist -13.8802
rhand -22.2111 10.0462
rfingers 7.12502
rthumb 4.20491 -19.892
lclavicle 5.91384e-015 1.47101e-014
lhumerus -31.9195 12.301 70.3616
lradius 31.2674
lwrist 8.60829
lhand -21.1338 23.6369
lfingers 7.12502
lthumb 5.24516 53.5519
rfemur -19.6508 -8.97251 20.8874
rtibia 44.3437
rfoot -21.9713 0.58767
rtoes -0.934999
lfemur -6.25938 4.56401 -18.92
ltibia 23.8846
lfoot -17.3909 -12.2857
ltoes 8.67057
2624
root 32.3788 17.9281 11.3523 1074.56 -87.9517 727.205
lowerback 6.13273 0.50832 -3.64547
upperback 1.99065 0.449142 1.76341
thorax -1.4269 0.202606 3.83866
lowerneck -14.861 -3.36811 -9.48999
upperneck 25.8224 -4.09126 5.06685
head 11.1181 -2.33629 2.85424
rclavicle 8.94531e-016 -3.57812e-015
rhumerus -30.6068 -6.97859 -80.4538
rradius 29.1541
rwrist -15.0024
rhand -22.1234 9.63122
rfingers 7.12502
rthumb 4.28961 -20.3053
lclavicle 8.94531e-016 -3.57812e-015
lhumerus -31.5287 12.2787 70.3339
lradius 31.4107
lwrist 8.63732
lhand -20.97 23.334
lfingers 7.12502
lthumb 5.40334 53.2452
rfemur -19.0817 -9.12986 20.8494
rtibia 43.9747
rfoot -21.5137 0.847411
rtoes -2.04713
lfemur -6.22792 4.89556 -19.0503
ltibia 24.0571
lfoot -17.6905 -12.0979
ltoes 5.1546
2625
root 32.3573 17.9126 11.3527 1064.95 -87.9987 736.714
lowerback 6.05141 0.449271 -3.90084
upperback 2.04845 0.35645 1.64472
thorax -1.31366 0.152693 3.86687
lowerneck -15.0591 -3.28413 -9.33772
upperneck 26.0752 -3.98569 4.98235
head 11.2378 -2.28787 2.81394
rclavicle -6.11263e-015 1.19271e-015
rhumerus -30.9661 -9.32789 -79.0085
rradius 28.0594
rwrist -8.93347
rhand -17.8429 9.65449
rfingers 7.12502
rthumb 8.42192 -20.1576
lclavicle -6.11263e-015 1.19271e-015
lhumerus -31.284 12.5245 70.222
lradius 31.6302
lwrist 8.44065
lhand -21.041 23.0952
lfingers 7.12502
lthumb 5.33471 53.0081
rfemur -18.489 -9.20067 20.5389
rtibia 43.559
rfoot -20.8979 1.379
rtoes -4.60957
lfemur -6.11113 4.95546 -19.4543
ltibia 24.1977
lfoot -17.8147 -11.7894
ltoes 4.4127
2626
root 32.3437 17.9057 11.3489 1060.19 -87.9794 741.494
lowerback 6.03249 0.381364 -4.10052
upperback 1.99476 0.255841 1.62938
thorax -1.34923 0.104759 3.97128
lowerneck -15.175 -3.18888 -9.2833
upperneck 26.2986 -3.86447 4.96422
head 11.3331 -2.23523 2.8175
rclavicle 4.87022e-015 -1.78906e-014
rhumerus -31.5155 -8.5579 -79.5884
rradius 28.0074
rwrist -13.2695
rhand -21.2848 10.2358
rfingers 7.12502
rthumb 5.09937 -19.6828
lclavicle 4.87022e-015 -1.78906e-014
lhumerus -31.1395 12.2943 70.3739
lradius 31.9852
lwrist 8.97287
lhand -21.3298 23.0879
lfingers 7.12502
lthumb 5.05586 53.0075
rfemur -18.0154 -8.92853 20.4544
rtibia 43.0628
rfoot -20.2112 1.87366
rtoes 0.468549
lfemur -6.13179 4.78484 -19.6545
ltibia 24.2928
lfoot -17.8667 -11.6817
ltoes 5.51883
2627
root 32.3379 17.8948 11.339 1061.18 -87.9532 740.544
lowerback 6.10996 0.280686 -4.10704
upperback 1.91148 0.119693 1.67598
thorax -1.46489 0.0415543 4.03355
lowerneck -15.1023 -3.07101 -9.30303
upperneck 26.2779 -3.68679 4.922
head 11.2952 -2.16378 2.83119
rclavicle 1.2275e-014 5.1684e-015
rhumerus -31.9483 -9.79613 -78.8278
rradius 27.0832
rwrist -10.983
rhand -20.7089 11.1898
rfingers 7.12502
rthumb 5.65543 -18.7147
lclavicle 1.2275e-014 5.1684e-015
lhumerus -31.0488 11.8715 70.6054
lradius 32.359
lwrist 9.50686
lhand -21.4064 23.1193
lfingers 7.12502
lthumb 4.98193 53.0408
rfemur -17.5563 -8.35377 20.6529
rtibia 42.4188
rfoot -19.4205 2.59345
rtoes 7.47752
lfemur -6.25574 4.79356 -19.6023
ltibia 24.4473
lfoot -17.9853 -11.812
ltoes 7.87269
2628
root 32.3222 17.886 11.333 1059.93 -87.9646 741.788
lowerback 6.05821 0.262808 -3.97043
upperback 1.87422 0.105304 1.5802
thorax -1.47301 0.0359501 3.85748
lowerneck -14.8852 -3.01672 -9.11835
upperneck 26.2113 -3.65164 4.81188
head 11.2169 -2.14612 2.76444
rclavicle -5.96354e-015 -4.37326e-015
rhumerus -32.4758 -10.8503 -78.3694
rradius 26.4911
rwrist -9.9334
rhand -20.5767 11.3737
rfingers 7.12502
rthumb 5.78307 -18.5274
lclavicle -5.96354e-015 -4.37326e-015
lhumerus -30.7671 11.3323 70.729
lradius 32.5465
lwrist 9.58097
lhand -20.8952 22.9158
lfingers 7.12502
lthumb 5.47553 52.825
rfemur -17.0491 -7.86823 20.7089
rtibia 41.6301
rfoot -18.7723 3.7638
rtoes 15.4108
lfemur -6.31225 4.71389 -19.651
ltibia 24.6841
lfoot -18.3725 -11.6409
ltoes 7.4695
2629
root 32.2922 17.8809 11.3337 1064.82 -88.105 737.008
lowerback 5.68178 0.293845 -3.49408
upperback 1.88241 0.187769 1.54736
thorax -1.26199 0.0731002 3.54728
lowerneck -14.9385 -3.05354 -9.08822
upperneck 26.4156 -3.7465 4.89278
head 11.3133 -2.18177 2.77776
rclavicle 4.27387e-015 2.3059e-014
rhumerus -32.9766 -11.5594 -78.1199
rradius 26.1189
rwrist -10.2429
rhand -21.0569 10.9886
rfingers 7.12502
rthumb 5.31937 -18.9247
lclavicle 4.27387e-015 2.3059e-014
lhumerus -30.2713 11.2589 70.8155
lradius 32.4794
lwrist 9.09807
lhand -20.431 22.5107
lfingers 7.12502
lthumb 5.92375 52.4078
rfemur -16.6303 -7.40612 20.9731
rtibia 40.7594
rfoot -19.0622 4.20335
rtoes 18.7714
lfemur -6.4352 4.38938 -19.4954
ltibia 24.9504
lfoot -18.8963 -11.0179
ltoes 3.27776
2630
root 32.2683 17.8729 11.3271 1071.84 -88.2006 730.135
lowerback 5.3775 0.229268 -3.2488
upperback 1.87503 0.126669 1.70893
thorax -1.09473 0.0393858 3.57964
lowerneck -15.2076 -3.03369 -9.32571
upperneck 26.7049 -3.65647 4.94144
head 11.4772 -2.16272 2.85148
rclavicle 1.59028e-015 -1.07344e-014
rhumerus -33.3104 -11.9507 -77.7142
rradius 25.6052
rwrist -10.0825
rhand -21.1046 10.9145
rfingers 7.12502
rthumb 5.2734 -18.9999
lclavicle 1.59028e-015 -1.07344e-014
lhumerus -29.9583 11.6021 70.976
lradius 32.4408
lwrist 8.37538
lhand -20.2392 22.3058
lfingers 7.12502
lthumb 6.10891 52.1977
rfemur -16.2524 -6.70595 21.3664
rtibia 39.848
rfoot -20.0011 2.86726
rtoes 17.4716
lfemur -6.65361 4.37144 -19.2142
ltibia 25.257
lfoot -19.1415 -11.0217
ltoes 2.44561
2631
root 32.2589 17.8632 11.3107 1074.29 -88.0071 727.71
lowerback 5.48122 0.0784283 -3.35008
upperback 1.79875 -0.0803346 1.86399
thorax -1.21257 -0.0607934 3.81154
lowerneck -15.3516 -3.0107 -9.53198
upperneck 26.9077 -3.55021 4.89143
head 11.5798 -2.14626 2.8853
rclavicle 3.926e-015 -3.97569e-016
rhumerus -33.8069 -11.7957 -77.4125
rradius 25.3184
rwrist -10.089
rhand -21.005 10.953
rfingers 7.12502
rthumb 5.36949 -18.959
lclavicle 3.926e-015 -3.97569e-016
lhumerus -29.8129 11.1152 71.3834
lradius 32.5879
lwrist 8.30975
lhand -20.1336 22.444
lfingers 7.12502
lthumb 6.21079 52.333
rfemur -15.8227 -6.48937 21.6046
rtibia 39.0181
rfoot -20.6463 0.847496
rtoes 14.7946
lfemur -6.83939 4.89806 -19.0228
ltibia 25.5463
lfoot -19.0862 -11.8546
ltoes 4.91543
2632
root 32.2514 17.8609 11.2983 1071.77 -87.6895 730.178
lowerback 5.70918 -0.0620214 -3.48256
upperback 1.71871 -0.280793 1.86199
thorax -1.40311 -0.155197 3.89961
lowerneck -15.4294 -2.99879 -9.62519
upperneck 27.0898 -3.52819 4.9437
head 11.667 -2.14478 2.92612
rclavicle -6.31141e-015 6.75868e-015
rhumerus -34.411 -11.9379 -77.138
rradius 25.1262
rwrist -10.1394
rhand -21.0832 10.915
rfingers 7.12502
rthumb 5.29402 -18.9989
lclavicle -6.31141e-015 6.75868e-015
lhumerus -29.7101 10.0859 71.8297
lradius 32.9365
lwrist 8.97763
lhand -20.6732 22.4626
lfingers 7.12502
lthumb 5.68988 52.3662
rfemur -15.3754 -6.59124 21.5825
rtibia 38.3975
rfoot -21.0248 -0.628563
rtoes 12.3855
lfemur -6.82643 4.93762 -19.0519
ltibia 25.6864
lfoot -18.9083 -12.4491
ltoes 9.53635
2633
root 32.239 17.8613 11.2877 1069.33 -87.4899 732.703
lowerback 5.70327 -0.182827 -3.53287
upperback 1.63227 -0.443573 1.80325
thorax -1.47378 -0.232425 3.87849
lowerneck -15.4782 -2.8874 -9.51319
upperneck 27.2698 -3.39631 4.89906
head 11.7311 -2.08571 2.91214
rclavicle 1.98785e-015 1.07344e-014
rhumerus -34.9144 -13.001 -76.6551
rradius 24.6151
rwrist -9.16489
rhand -21.1652 11.1436
rfingers 7.12502
rthumb 5.21484 -18.7722
lclavicle 1.98785e-015 1.07344e-014
lhumerus -29.6885 9.28791 72.1557
lradius 33.423
lwrist 9.60946
lhand -21.283 22.3569
lfingers 7.12502
lthumb 5.10114 52.2755
rfemur -15.1427 -6.42886 21.5379
rtibia 38.0186
rfoot -21.261 -1.18806
rtoes 11.775
lfemur -6.85411 5.05917 -19.126
ltibia 25.6901
lfoot -18.797 -12.7694
ltoes 7.13138
2634
root 32.2227 17.8521 11.2691 1067.4 -87.4307 734.802
lowerback 5.56311 -0.207305 -3.58788
upperback 1.54104 -0.473897 1.71979
thorax -1.48705 -0.244262 3.82402
lowerneck -15.4518 -2.78372 -9.33925
upperneck 27.3574 -3.30298 4.88256
head 11.7465 -2.03205 2.89155
rclavicle -8.15017e-015 2.38542e-015
rhumerus -35.4222 -14.0146 -76.2488
rradius 24.0685
rwrist -8.34226
rhand -21.2009 11.5328
rfingers 7.12502
rthumb 5.18033 -18.3839
lclavicle -8.15017e-015 2.38542e-015
lhumerus -29.4928 8.70676 72.4345
lradius 33.7145
lwrist 9.4804
lhand -20.9863 22.2299
lfingers 7.12502
lthumb 5.38757 52.1414
rfemur -15.1103 -6.05206 21.5714
rtibia 37.8037
rfoot -21.2241 -1.07041
rtoes 13.8089
lfemur -7.04725 5.93448 -19.1941
ltibia 25.6455
lfoot -19.1111 -12.6694
ltoes 5.27067
2635
root 32.2051 17.8489 11.2493 1065.67 -87.4593 736.598
lowerback 5.49733 -0.207903 -3.66965
upperback 1.50938 -0.476606 1.69856
thorax -1.48213 -0.244559 3.84793
lowerneck -15.4463 -2.72097 -9.2883
upperneck 27.3372 -3.23689 4.91855
head 11.7307 -1.99223 2.90605
rclavicle 1.88845e-015 5.56597e-015
rhumerus -35.8818 -14.8741 -75.6947
rradius 23.6096
rwrist -7.64286
rhand -20.525 11.9078
rfingers 7.12502
rthumb 5.83294 -17.9919
lclavicle 1.88845e-015 5.56597e-015
lhumerus -29.2609 8.35552 72.6871
lradius 33.9531
lwrist 9.1314
lhand -20.5913 22.2311
lfingers 7.12502
lthumb 5.76897 52.1326
rfemur -15.0193 -5.51986 21.6687
rtibia 37.6833
rfoot -21.1416 -1.34715
rtoes 15.0795
lfemur -7.07241 6.36266 -19.2072
ltibia 25.5517
lfoot -19.4005 -12.4273
ltoes -2.43682
